<mxfile host="app.diagrams.net" agent="Mozilla/5.0 (Windows NT 10.0; Win64; x64) AppleWebKit/537.36 (KHTML, like Gecko) Chrome/130.0.0.0 Safari/537.36" version="24.8.0">
  <diagram name="Page-1" id="zzj97H0QVAPcfb73-S_L">
    <mxGraphModel dx="1232" dy="1953" grid="0" gridSize="10" guides="1" tooltips="1" connect="1" arrows="1" fold="1" page="1" pageScale="1" pageWidth="1100" pageHeight="850" math="0" shadow="0">
      <root>
        <mxCell id="0" />
        <mxCell id="1" parent="0" />
        <mxCell id="bAa9Dd0eW5oCRQwULeUu-22" style="rounded=0;orthogonalLoop=1;jettySize=auto;html=1;exitX=1;exitY=0.25;exitDx=0;exitDy=0;" edge="1" parent="1" source="bAa9Dd0eW5oCRQwULeUu-2" target="bAa9Dd0eW5oCRQwULeUu-10">
          <mxGeometry relative="1" as="geometry" />
        </mxCell>
        <mxCell id="bAa9Dd0eW5oCRQwULeUu-27" value="&lt;font style=&quot;font-size: 15px;&quot;&gt;Invoke via webhooks&lt;/font&gt;" style="edgeLabel;html=1;align=center;verticalAlign=middle;resizable=0;points=[];" vertex="1" connectable="0" parent="bAa9Dd0eW5oCRQwULeUu-22">
          <mxGeometry x="-0.2089" y="-4" relative="1" as="geometry">
            <mxPoint x="6" y="-3" as="offset" />
          </mxGeometry>
        </mxCell>
        <mxCell id="bAa9Dd0eW5oCRQwULeUu-2" value="&lt;b style=&quot;font-size: 25px;&quot;&gt;&lt;font style=&quot;font-size: 25px;&quot;&gt;Cognibly Flask APP&lt;/font&gt;&lt;/b&gt;&lt;div style=&quot;font-size: 25px;&quot;&gt;&lt;br&gt;&lt;/div&gt;&lt;div style=&quot;font-size: 25px;&quot;&gt;Front-end, Back-end&lt;/div&gt;&lt;div style=&quot;font-size: 25px;&quot;&gt;Landing, User signup / login, User Settings, Checkout/Subscription,&amp;nbsp;&lt;/div&gt;&lt;div style=&quot;font-size: 25px;&quot;&gt;&lt;br&gt;&lt;/div&gt;" style="shape=process;whiteSpace=wrap;html=1;backgroundOutline=1;" vertex="1" parent="1">
          <mxGeometry x="50" y="100" width="490" height="290" as="geometry" />
        </mxCell>
        <mxCell id="bAa9Dd0eW5oCRQwULeUu-3" value="&lt;font style=&quot;font-size: 27px;&quot;&gt;Budibase&lt;/font&gt;" style="rounded=0;whiteSpace=wrap;html=1;" vertex="1" parent="1">
          <mxGeometry x="115" y="526" width="360" height="190" as="geometry" />
        </mxCell>
        <mxCell id="bAa9Dd0eW5oCRQwULeUu-4" value="&lt;font style=&quot;font-size: 22px;&quot;&gt;Postgresql Database&lt;/font&gt;&lt;div&gt;&lt;font style=&quot;font-size: 22px;&quot;&gt;&lt;br&gt;&lt;/font&gt;&lt;/div&gt;&lt;div&gt;&lt;font style=&quot;font-size: 22px;&quot;&gt;- Users&lt;br&gt;- Model Data&lt;/font&gt;&lt;/div&gt;&lt;div&gt;&lt;font style=&quot;font-size: 22px;&quot;&gt;- Transactions&lt;/font&gt;&lt;/div&gt;" style="shape=cylinder3;whiteSpace=wrap;html=1;boundedLbl=1;backgroundOutline=1;size=15;" vertex="1" parent="1">
          <mxGeometry x="703" y="476" width="290" height="280" as="geometry" />
        </mxCell>
        <mxCell id="bAa9Dd0eW5oCRQwULeUu-5" value="&lt;font style=&quot;font-size: 22px;&quot;&gt;&lt;b&gt;SSO, via Auth Provider&lt;/b&gt;&lt;/font&gt;" style="endArrow=classic;startArrow=classic;html=1;rounded=0;entryX=0.5;entryY=1;entryDx=0;entryDy=0;" edge="1" parent="1" source="bAa9Dd0eW5oCRQwULeUu-3" target="bAa9Dd0eW5oCRQwULeUu-2">
          <mxGeometry width="50" height="50" relative="1" as="geometry">
            <mxPoint x="250" y="520" as="sourcePoint" />
            <mxPoint x="300" y="470" as="targetPoint" />
          </mxGeometry>
        </mxCell>
        <mxCell id="bAa9Dd0eW5oCRQwULeUu-6" value="&lt;font style=&quot;font-size: 17px;&quot;&gt;&lt;span style=&quot;background-color: initial;&quot;&gt;- Public View&lt;/span&gt;&lt;br&gt;&lt;span style=&quot;background-color: initial;&quot;&gt;- Paid User / Subscriber View&lt;/span&gt;&lt;/font&gt;" style="text;html=1;align=center;verticalAlign=middle;whiteSpace=wrap;rounded=0;" vertex="1" parent="1">
          <mxGeometry x="150" y="610" width="310" height="110" as="geometry" />
        </mxCell>
        <mxCell id="bAa9Dd0eW5oCRQwULeUu-7" value="" style="endArrow=classic;startArrow=classic;html=1;rounded=0;entryX=0.007;entryY=0.529;entryDx=0;entryDy=0;entryPerimeter=0;" edge="1" parent="1" source="bAa9Dd0eW5oCRQwULeUu-3" target="bAa9Dd0eW5oCRQwULeUu-4">
          <mxGeometry width="50" height="50" relative="1" as="geometry">
            <mxPoint x="510" y="700" as="sourcePoint" />
            <mxPoint x="560" y="650" as="targetPoint" />
          </mxGeometry>
        </mxCell>
        <mxCell id="bAa9Dd0eW5oCRQwULeUu-10" value="&lt;span style=&quot;font-size: 18px;&quot;&gt;N8N Scraping Workflows&lt;/span&gt;" style="rounded=0;whiteSpace=wrap;html=1;" vertex="1" parent="1">
          <mxGeometry x="760" y="134" width="165" height="80" as="geometry" />
        </mxCell>
        <mxCell id="bAa9Dd0eW5oCRQwULeUu-11" style="rounded=0;orthogonalLoop=1;jettySize=auto;html=1;entryX=0.479;entryY=-0.011;entryDx=0;entryDy=0;entryPerimeter=0;" edge="1" parent="1" source="bAa9Dd0eW5oCRQwULeUu-10" target="bAa9Dd0eW5oCRQwULeUu-4">
          <mxGeometry relative="1" as="geometry">
            <mxPoint x="697.5" y="340" as="targetPoint" />
          </mxGeometry>
        </mxCell>
        <mxCell id="bAa9Dd0eW5oCRQwULeUu-12" value="&lt;font style=&quot;font-size: 20px;&quot;&gt;Pure Data&lt;/font&gt;" style="edgeLabel;html=1;align=center;verticalAlign=middle;resizable=0;points=[];" vertex="1" connectable="0" parent="bAa9Dd0eW5oCRQwULeUu-11">
          <mxGeometry x="-0.4501" y="5" relative="1" as="geometry">
            <mxPoint as="offset" />
          </mxGeometry>
        </mxCell>
        <mxCell id="bAa9Dd0eW5oCRQwULeUu-16" value="&lt;span style=&quot;font-size: 20px;&quot;&gt;Job Posting Sites&lt;/span&gt;" style="ellipse;shape=cloud;whiteSpace=wrap;html=1;" vertex="1" parent="1">
          <mxGeometry x="540" y="-162" width="260" height="180" as="geometry" />
        </mxCell>
        <mxCell id="bAa9Dd0eW5oCRQwULeUu-17" value="" style="endArrow=classic;startArrow=classic;html=1;rounded=0;entryX=0.504;entryY=0.938;entryDx=0;entryDy=0;entryPerimeter=0;exitX=0.206;exitY=0.038;exitDx=0;exitDy=0;exitPerimeter=0;" edge="1" parent="1" source="bAa9Dd0eW5oCRQwULeUu-10" target="bAa9Dd0eW5oCRQwULeUu-16">
          <mxGeometry width="50" height="50" relative="1" as="geometry">
            <mxPoint x="620" y="120" as="sourcePoint" />
            <mxPoint x="670" y="70" as="targetPoint" />
          </mxGeometry>
        </mxCell>
        <mxCell id="bAa9Dd0eW5oCRQwULeUu-18" style="edgeStyle=orthogonalEdgeStyle;rounded=0;orthogonalLoop=1;jettySize=auto;html=1;entryX=0;entryY=0.321;entryDx=0;entryDy=0;entryPerimeter=0;endArrow=classic;endFill=1;" edge="1" parent="1" source="bAa9Dd0eW5oCRQwULeUu-2" target="bAa9Dd0eW5oCRQwULeUu-4">
          <mxGeometry relative="1" as="geometry" />
        </mxCell>
        <mxCell id="bAa9Dd0eW5oCRQwULeUu-19" value="&lt;font style=&quot;font-size: 19px;&quot;&gt;Agencies / Users&lt;/font&gt;" style="shape=umlActor;verticalLabelPosition=bottom;verticalAlign=top;html=1;outlineConnect=0;fontStyle=1" vertex="1" parent="1">
          <mxGeometry x="280" y="-140" width="30" height="60" as="geometry" />
        </mxCell>
        <mxCell id="bAa9Dd0eW5oCRQwULeUu-20" value="" style="endArrow=classic;startArrow=classic;html=1;rounded=0;exitX=0.5;exitY=0;exitDx=0;exitDy=0;" edge="1" parent="1" source="bAa9Dd0eW5oCRQwULeUu-2" target="bAa9Dd0eW5oCRQwULeUu-19">
          <mxGeometry width="50" height="50" relative="1" as="geometry">
            <mxPoint x="130" y="40" as="sourcePoint" />
            <mxPoint x="180" y="-10" as="targetPoint" />
          </mxGeometry>
        </mxCell>
        <mxCell id="bAa9Dd0eW5oCRQwULeUu-29" value="" style="edgeStyle=orthogonalEdgeStyle;rounded=0;orthogonalLoop=1;jettySize=auto;html=1;" edge="1" parent="1" source="bAa9Dd0eW5oCRQwULeUu-28" target="bAa9Dd0eW5oCRQwULeUu-10">
          <mxGeometry relative="1" as="geometry" />
        </mxCell>
        <mxCell id="bAa9Dd0eW5oCRQwULeUu-30" value="&lt;font style=&quot;font-size: 14px;&quot;&gt;Invoke Via&lt;br&gt;Timers&lt;/font&gt;" style="edgeLabel;html=1;align=center;verticalAlign=middle;resizable=0;points=[];" vertex="1" connectable="0" parent="bAa9Dd0eW5oCRQwULeUu-29">
          <mxGeometry x="-0.0427" relative="1" as="geometry">
            <mxPoint as="offset" />
          </mxGeometry>
        </mxCell>
        <mxCell id="bAa9Dd0eW5oCRQwULeUu-28" value="" style="sketch=0;pointerEvents=1;shadow=0;dashed=0;html=1;strokeColor=none;fillColor=#505050;labelPosition=center;verticalLabelPosition=bottom;verticalAlign=top;outlineConnect=0;align=center;shape=mxgraph.office.concepts.clock;" vertex="1" parent="1">
          <mxGeometry x="1042" y="151.5" width="45" height="45" as="geometry" />
        </mxCell>
        <mxCell id="bAa9Dd0eW5oCRQwULeUu-35" style="rounded=0;orthogonalLoop=1;jettySize=auto;html=1;" edge="1" parent="1" source="bAa9Dd0eW5oCRQwULeUu-34" target="bAa9Dd0eW5oCRQwULeUu-10">
          <mxGeometry relative="1" as="geometry">
            <mxPoint x="840" y="132" as="targetPoint" />
          </mxGeometry>
        </mxCell>
        <mxCell id="bAa9Dd0eW5oCRQwULeUu-34" value="Azure &lt;br&gt;OpenAI models&lt;br&gt;- Summaries&lt;br&gt;&lt;div&gt;- Embeddings&lt;/div&gt;" style="rhombus;whiteSpace=wrap;html=1;" vertex="1" parent="1">
          <mxGeometry x="947" y="-160" width="147" height="141" as="geometry" />
        </mxCell>
      </root>
    </mxGraphModel>
  </diagram>
</mxfile>
